<?xml version="1.0" encoding="utf-8"?>
<!-- Generator: Adobe Illustrator 24.2.3, SVG Export Plug-In . SVG Version: 6.00 Build 0)  -->
<svg version="1.1" id="Capa_1" xmlns="http://www.w3.org/2000/svg" xmlns:xlink="http://www.w3.org/1999/xlink" x="0px" y="0px"
	 viewBox="0 0 512 512" style="enable-background:new 0 0 512 512;" xml:space="preserve">
<style type="text/css">
	.st0{fill:#49B3FD;}
</style>
<g>
	<g>
		<path class="st0" d="M310,190c-5.52,0-10,4.48-10,10s4.48,10,10,10s10-4.48,10-10S315.52,190,310,190z"/>
	</g>
</g>
<g>
	<g>
		<path class="st0" d="M500.28,443.72L366.8,310.24C388.55,277.48,400,239.55,400,200C400,89.72,310.28,0,200,0S0,89.72,0,200
			s89.72,200,200,200c39.56,0,77.49-11.45,110.24-33.2l36.89,36.89c0.01,0.01,0.01,0.01,0.02,0.02l96.57,96.57
			c7.56,7.56,17.6,11.72,28.28,11.72s20.72-4.16,28.28-11.72c7.56-7.55,11.72-17.6,11.72-28.28S507.84,451.27,500.28,443.72z
			 M305.54,345.73C305.54,345.73,305.54,345.73,305.54,345.73C274.67,368.15,238.18,380,200,380c-99.25,0-180-80.75-180-180
			S100.75,20,200,20s180,80.75,180,180c0,38.18-11.85,74.67-34.27,105.54C334.51,320.99,320.99,334.51,305.54,345.73z
			 M326.52,354.79c10.35-8.47,19.81-17.93,28.28-28.28l28.37,28.37c-8.63,10.18-18.09,19.65-28.28,28.28L326.52,354.79z
			 M486.14,486.14c-3.78,3.78-8.8,5.86-14.14,5.86s-10.36-2.08-14.14-5.86l-88.8-88.8c10.13-8.69,19.59-18.15,28.28-28.28l88.8,88.8
			c3.78,3.77,5.86,8.79,5.86,14.14S489.92,482.36,486.14,486.14z"/>
	</g>
</g>
<g>
	<g>
		<path class="st0" d="M200,40c-88.22,0-160,71.78-160,160s71.78,160,160,160s160-71.77,160-160S288.23,40,200,40z M200,340
			c-77.2,0-140-62.8-140-140S122.8,60,200,60s140,62.8,140,140S277.2,340,200,340z"/>
	</g>
</g>
<g>
	<g>
		<path class="st0" d="M312.07,157.07c-8.61-22.41-23.6-41.57-43.36-55.41C248.48,87.49,224.72,80,200,80c-5.52,0-10,4.48-10,10
			s4.48,10,10,10c41.1,0,78.63,25.82,93.4,64.25c1.53,3.98,5.32,6.42,9.34,6.42c1.19,0,2.4-0.21,3.58-0.67
			C311.47,168.01,314.05,162.23,312.07,157.07z"/>
	</g>
</g>
</svg>
